<svg xmlns="http://www.w3.org/2000/svg" width="148.368" height="64" viewBox="0 0 148.368 64">
  <g id="Tinbo_logo" data-name="Tinbo logo" transform="translate(-1312 -165)">
    <path id="Path_7" data-name="Path 7" d="M-501.773,280.121v-.029h7.011v12.327h9.406v7.01h-9.406v15.861a12.193,12.193,0,0,0,.643,3.637q.643,2.03,4.148,2.03h3.447q.263.029,1.168.029v6.981h-4.411a12.324,12.324,0,0,1-8.53-2.921,10.659,10.659,0,0,1-3.476-8.384V299.429h-4.791v-7.01h4.791v-12.3Z" transform="translate(1818.564 -114.975)" fill="#fe3c02"/>
    <path id="Path_8" data-name="Path 8" d="M-438.3,314.223h7.04v35.754h-7.04Z" transform="translate(1774.545 -136.984)" fill="#fe3c02"/>
    <path id="Path_9" data-name="Path 9" d="M-405.586,314.47h6.982v5.871a12.247,12.247,0,0,1,7.215-5.243,16.238,16.238,0,0,1,8.9.059,15.881,15.881,0,0,1,7.551,4.863,13.36,13.36,0,0,1,3.184,9.2v20.915h-7.011V329.893a8.388,8.388,0,0,0-2.935-6.806,10.152,10.152,0,0,0-6.543-2.5,10.242,10.242,0,0,0-6.763,2.556q-3.155,2.6-3.593,8.325v.847h-.029v17.818h-7.011V314.47Z" transform="translate(1753.489 -137.143)" fill="#fe3c02"/>
    <path id="Path_10" data-name="Path 10" d="M-299.4,327.756h-.058V279.763h7.039V297.9a12.04,12.04,0,0,1,8.048-5.185,16.129,16.129,0,0,1,9.888.745,18.26,18.26,0,0,1,7.756,6.514,17.113,17.113,0,0,1,3.023,9.9,17.16,17.16,0,0,1-3.023,9.932,18.052,18.052,0,0,1-7.756,6.484,15.911,15.911,0,0,1-9.888.76,12.09,12.09,0,0,1-8.048-5.2v5.9Zm6.981-17.03a10.661,10.661,0,0,0,3.447,7.113,10.423,10.423,0,0,0,7.39,2.906,10.48,10.48,0,0,0,7.667-3.184,10.444,10.444,0,0,0,3.2-7.682,10.459,10.459,0,0,0-3.2-7.668,10.459,10.459,0,0,0-7.667-3.2,10.425,10.425,0,0,0-7.39,2.906,10.661,10.661,0,0,0-3.447,7.113Z" transform="translate(1685.02 -114.763)" fill="#43bece"/>
    <path id="Path_11" data-name="Path 11" d="M-173.563,318.139a17.622,17.622,0,0,0-17.622,17.621,17.622,17.622,0,0,0,17.622,17.621,17.622,17.622,0,0,0,17.622-17.621A17.622,17.622,0,0,0-173.563,318.139Zm-.205,28.289a10.667,10.667,0,0,1-10.667-10.667,10.667,10.667,0,0,1,10.667-10.667A10.667,10.667,0,0,1-163.1,335.76,10.667,10.667,0,0,1-173.768,346.427Z" transform="translate(1615.2 -139.509)" fill="#43bece"/>
    <path id="Path_12" data-name="Path 12" d="M-175.164,431.734a29.754,29.754,0,0,1-17.681-5.8,3.612,3.612,0,0,1-.763-5.05,3.611,3.611,0,0,1,5.051-.763,22.591,22.591,0,0,0,26.067.5,3.612,3.612,0,0,1,5.017.958,3.612,3.612,0,0,1-.958,5.017A29.748,29.748,0,0,1-175.164,431.734Z" transform="translate(1617.217 -204.812)" fill="#fe3c02"/>
    <path id="Path_13" data-name="Path 13" d="M2.379-14.509H3.37V-21.03H5.3V-21.9H.45v.874H2.379Zm3.612,0h.948v-5.2H5.991ZM5.842-21.53a.632.632,0,0,0,.639.629.637.637,0,0,0,.629-.629.637.637,0,0,0-.629-.629A.632.632,0,0,0,5.842-21.53Zm5.946,3.761v3.26h.948V-17.95a1.715,1.715,0,0,0-1.918-1.865,1.923,1.923,0,0,0-1.652.81v-.7H8.218v5.2h.948v-2.962c0-1.066.6-1.566,1.385-1.566A1.137,1.137,0,0,1,11.787-17.769ZM16.23-14.4a2.014,2.014,0,0,0,1.875-1.023v.916h.959V-22.5h-.959v3.719a2.022,2.022,0,0,0-1.875-1.034,2.51,2.51,0,0,0-2.5,2.706A2.5,2.5,0,0,0,16.23-14.4Zm-1.556-2.706a1.757,1.757,0,0,1,1.737-1.907,1.751,1.751,0,0,1,1.737,1.907A1.745,1.745,0,0,1,16.411-15.2,1.751,1.751,0,0,1,14.675-17.108ZM21.8-14.4a1.881,1.881,0,0,0,1.854-1.055h.075v.192c0,.522.352.757.874.757h.458v-.767h-.181c-.3,0-.4-.139-.4-.5v-2.035a3.078,3.078,0,0,0-.075-.725,1.83,1.83,0,0,0-2.014-1.279,1.945,1.945,0,0,0-2.195,1.62l.938.117a1.131,1.131,0,0,1,1.268-.98A1,1,0,0,1,23.529-18c0,.224-.2.309-.4.352l-1.034.181c-1.14.213-1.971.639-1.971,1.662C20.119-14.85,20.908-14.4,21.8-14.4Zm-.735-1.481c0-.49.362-.778,1.076-.9l1.385-.3c0,1.2-.586,1.918-1.577,1.918C21.4-15.159,21.068-15.425,21.068-15.883Zm8.386-1.843v3.218H30.4v-3.346a1.736,1.736,0,0,0-1.875-1.961,1.959,1.959,0,0,0-1.694.842V-22.5h-.948v7.991h.948v-2.962c0-1.087.629-1.566,1.375-1.566A1.153,1.153,0,0,1,29.453-17.726ZM33.087-14.4a1.881,1.881,0,0,0,1.854-1.055h.075v.192c0,.522.352.757.874.757h.458v-.767h-.181c-.3,0-.4-.139-.4-.5v-2.035a3.078,3.078,0,0,0-.075-.725,1.83,1.83,0,0,0-2.014-1.279,1.945,1.945,0,0,0-2.195,1.62l.938.117a1.131,1.131,0,0,1,1.268-.98A1,1,0,0,1,34.813-18c0,.224-.2.309-.4.352l-1.034.181c-1.14.213-1.971.639-1.971,1.662C31.4-14.85,32.192-14.4,33.087-14.4Zm-.735-1.481c0-.49.362-.778,1.076-.9l1.385-.3c0,1.2-.586,1.918-1.577,1.918C32.682-15.159,32.352-15.425,32.352-15.883Zm8.386-1.886v3.26h.948V-17.95a1.715,1.715,0,0,0-1.918-1.865,1.923,1.923,0,0,0-1.652.81v-.7h-.948v5.2h.948v-2.962c0-1.066.6-1.566,1.385-1.566A1.137,1.137,0,0,1,40.737-17.769Zm4.816,3.26h.991v-6.084l3.932,6.084h1.215V-21.9h-.98v6.084L46.768-21.9H45.553Zm7.48,0h.948v-5.2h-.948Zm-.149-7.022a.632.632,0,0,0,.639.629.637.637,0,0,0,.629-.629.637.637,0,0,0-.629-.629A.632.632,0,0,0,52.884-21.53Zm5.008,7.022h2.77c1.023,0,2.4-.373,2.4-2.024a1.756,1.756,0,0,0-1.438-1.875,1.588,1.588,0,0,0,.991-1.609c0-1.247-.8-1.886-2.355-1.886H57.892Zm.991-.852V-17.9h1.8c.927,0,1.4.416,1.4,1.268s-.469,1.268-1.4,1.268Zm0-3.314v-2.4h1.353c.938,0,1.385.394,1.385,1.2s-.448,1.193-1.385,1.193ZM66.565-14.4a2.578,2.578,0,0,0,2.706-2.706,2.584,2.584,0,0,0-2.706-2.706,2.576,2.576,0,0,0-2.7,2.706A2.57,2.57,0,0,0,66.565-14.4Zm-1.747-2.706a1.765,1.765,0,0,1,1.747-1.929,1.767,1.767,0,0,1,1.758,1.929,1.767,1.767,0,0,1-1.758,1.929A1.765,1.765,0,0,1,64.818-17.108ZM72.2-14.4c1.236,0,1.982-.629,1.982-1.62,0-1.129-1.012-1.385-1.854-1.566-.682-.139-1.268-.277-1.268-.788,0-.448.426-.7,1.012-.7a1.17,1.17,0,0,1,1.193.778l.842-.2a1.884,1.884,0,0,0-2.035-1.311c-1.172,0-1.9.618-1.9,1.492,0,1.076.991,1.375,1.822,1.545.735.149,1.3.288,1.3.863,0,.479-.416.788-1.055.788a1.353,1.353,0,0,1-1.406-.98l-.8.213A2,2,0,0,0,72.2-14.4Zm4.933,0c1.236,0,1.982-.629,1.982-1.62,0-1.129-1.012-1.385-1.854-1.566-.682-.139-1.268-.277-1.268-.788,0-.448.426-.7,1.012-.7A1.17,1.17,0,0,1,78.2-18.3l.842-.2a1.884,1.884,0,0,0-2.035-1.311c-1.172,0-1.9.618-1.9,1.492,0,1.076.991,1.375,1.822,1.545.735.149,1.3.288,1.3.863,0,.479-.416.788-1.055.788a1.353,1.353,0,0,1-1.406-.98l-.8.213A2,2,0,0,0,77.135-14.4Zm3.026-.107h.948v-5.2h-.948Zm-.149-7.022a.632.632,0,0,0,.639.629.637.637,0,0,0,.629-.629.637.637,0,0,0-.629-.629A.632.632,0,0,0,80.012-21.53Zm5.946,3.761v3.26h.948V-17.95a1.715,1.715,0,0,0-1.918-1.865,1.923,1.923,0,0,0-1.652.81v-.7h-.948v5.2h.948v-2.962c0-1.066.6-1.566,1.385-1.566A1.137,1.137,0,0,1,85.958-17.769Zm4.592,5.924a2.4,2.4,0,0,0,2.589-2.706v-5.157h-.948v.948a2.025,2.025,0,0,0-1.865-1.055A2.443,2.443,0,0,0,87.9-17.183a2.45,2.45,0,0,0,2.419,2.642,2.042,2.042,0,0,0,1.875-1.044v1.1c0,1.172-.565,1.886-1.673,1.886a1.743,1.743,0,0,1-1.715-1.2l-.8.341A2.487,2.487,0,0,0,90.55-11.845Zm-1.737-5.338a1.734,1.734,0,0,1,1.715-1.865,1.726,1.726,0,0,1,1.7,1.865,1.723,1.723,0,0,1-1.7,1.854A1.731,1.731,0,0,1,88.813-17.183Z" transform="translate(1311.711 240.845)" fill="#43bece"/>
  </g>
</svg>
