<?xml version="1.0" encoding="utf-8"?>
<!-- Svg Vector Icons : http://www.onlinewebfonts.com/icon -->
<!DOCTYPE svg PUBLIC "-//W3C//DTD SVG 1.1//EN" "http://www.w3.org/Graphics/SVG/1.1/DTD/svg11.dtd">
<svg version="1.1" xmlns="http://www.w3.org/2000/svg" xmlns:xlink="http://www.w3.org/1999/xlink" x="0px" y="0px" viewBox="0 0 256 256" enable-background="new 0 0 256 256" xml:space="preserve">
<metadata> Svg Vector Icons : http://www.onlinewebfonts.com/icon </metadata>
<g><g><g><path fill="#000000" d="M48.1,22.4c-5.4,1.4-8.4,4.6-11.6,12.3c-6,14.2-9.9,21.4-19,35.4c-3.5,5.4-6.7,10.7-7.1,12c-0.9,3.2-0.1,8.3,2,12.9c6.8,14.2,26.2,17.5,37.5,6.3c3.3-3.3,6.1-8.8,6.5-12.8c0.1-1.5,0.4-2.8,0.6-2.8s0.5,1.2,0.6,2.8c0.1,1.6,1,4.2,2,6.4c6.8,14.3,26.3,17.6,37.6,6.4c3.3-3.3,6.1-8.8,6.5-12.8c0.1-1.5,0.4-2.8,0.6-2.8c0.2,0,0.5,1.2,0.6,2.8c0.1,1.6,1,4.2,2,6.4c6.8,14.4,26.3,17.7,37.6,6.4c3.2-3.2,6-8.7,6.5-12.5c0.1-1.4,0.4-2.6,0.6-2.6c0.2,0,0.5,1.1,0.6,2.6c0.8,6.7,6.2,13.8,12.8,16.9c6.9,3.3,13.6,3.3,20.5,0c6.6-3.1,12-10.2,12.8-16.9c0.1-1.4,0.4-2.6,0.6-2.6s0.5,1.1,0.6,2.6c0.5,3.8,3.3,9.3,6.5,12.5c3.3,3.3,8.5,5.9,13.3,6.6c6.9,1.1,14.8-1.6,19.9-6.6c5-5,8-13.9,6.5-19.1c-0.4-1.2-3.6-6.7-7.1-12.1C229.2,56,225.4,49,219.4,34.6c-2.8-6.5-5-9.4-9.1-11.3l-2.8-1.4L129,21.8C67.9,21.8,49.9,21.9,48.1,22.4z"/><path fill="#000000" d="M55.2,107.5c-4.1,4.4-12.2,8.1-18.5,8.7l-3.4,0.3v39.5c0,24.6,0.2,40.7,0.5,42.7c1.6,10.1,9.6,18.1,19.7,19.7c3.3,0.5,104,0.7,104,0.2c0-0.1-0.6-1.6-1.5-3.2c-0.8-1.6-2.1-4.9-2.8-7.2c-1.2-4-1.3-5-1.3-13c0-8,0.1-9,1.3-13c0.7-2.4,2-5.7,2.8-7.2c0.8-1.6,1.5-3.1,1.5-3.2c0-0.1-19.5-0.2-43.4-0.2c-48,0-45.5,0.1-47.9-3.2c-1.1-1.5-1.1-1.6-1.3-28.9L64.6,112l-3-2.2c-1.6-1.2-3.3-2.6-3.6-3C57.2,105.7,56.9,105.7,55.2,107.5z"/><path fill="#000000" d="M197.5,107.2c-0.6,0.7-2.3,2-3.8,3.1L191,112v18v18l8.3,0.1c7.5,0,8.6,0.1,12.6,1.3c2.4,0.7,5.7,2,7.2,2.8c1.6,0.8,3.1,1.5,3.2,1.5s0.2-8.4,0.2-18.7v-18.6l-3.3-0.2c-6.2-0.5-14.1-4.1-18.4-8.5c-0.9-0.9-1.8-1.7-2-1.7C198.7,106,198.1,106.5,197.5,107.2z"/><path fill="#000000" d="M194.1,156.2c-20,2.7-34.2,18.9-34.2,38.9c0,22,17,39,39,39c12.1,0,22.7-5,30.3-14.2c5.8-7,8.7-15.3,8.7-24.8c0-13.3-6.2-25-17-32.5C213.6,157.7,202.8,155,194.1,156.2z M218.9,180.6c2.6,1.5,3.7,3.2,3.7,5.3c0,2.5-18.8,29.2-21.6,30.7c-2.3,1.2-7,1.3-9.4,0c-1.1-0.6-4-4-9-10.7c-6.5-8.7-7.3-10.1-7.3-11.8c0-2.4,2.2-5,5.2-6.2c3.5-1.3,4.5-0.6,10.2,7.1c2.7,3.7,5.1,6.9,5.3,7.1c0.2,0.2,3.7-4.4,7.9-10.3s8-11.1,8.6-11.6C213.9,179,216.5,179.2,218.9,180.6z"/></g></g></g>
</svg>